<svg version="1.1" id="Layer_1" xmlns="http://www.w3.org/2000/svg" xmlns:xlink="http://www.w3.org/1999/xlink" x="0px" y="0px"
	 width="100%" viewBox="0 0 512 512" enable-background="new 0 0 512 512" xml:space="preserve">
<path fill="#FFFEFE" opacity="1.000000" stroke="none" 
	d="
M513.000000,184.000000 
	C513.000000,293.973267 513.000000,403.446533 513.000000,512.959900 
	C342.401733,512.959900 171.803436,512.959900 1.102575,512.959900 
	C1.102575,342.443420 1.102575,171.886780 1.102575,1.165060 
	C171.666534,1.165060 342.333252,1.165060 513.000000,1.165060 
	C513.000000,61.863194 513.000000,122.681595 513.000000,184.000000 
M153.621750,338.463898 
	C138.940521,335.283325 124.830933,336.796234 111.429291,343.735779 
	C105.547760,346.781311 105.053513,349.153564 109.562180,354.041748 
	C118.706528,363.955902 127.966354,373.765076 137.275604,383.524963 
	C142.205719,388.693726 144.169144,388.504578 148.057068,382.583160 
	C152.286331,376.141876 158.046722,372.034912 165.530823,370.206970 
	C171.457413,368.759430 171.857742,365.937439 168.469620,360.941528 
	C165.099838,355.972626 162.921082,350.196014 160.960587,344.997040 
	C173.914139,356.029816 187.586273,365.902100 203.333038,372.741577 
	C207.587753,374.589569 209.571609,373.424957 210.846771,369.632080 
	C211.475174,367.762909 211.917038,365.771393 212.058197,363.807556 
	C213.144913,348.688690 205.000092,338.806305 192.712143,332.170807 
	C181.356842,326.038910 169.383194,324.433319 157.569382,331.773865 
	C154.917679,333.421478 153.000916,335.216736 153.621750,338.463898 
M145.772156,208.643082 
	C147.162537,210.933884 148.552917,213.224686 149.328629,216.067947 
	C142.768616,226.437958 134.105957,234.182999 121.827652,236.772995 
	C117.827911,237.616699 116.835419,239.307861 116.869568,243.122940 
	C117.071358,265.665894 122.527992,286.921265 132.790909,306.853363 
	C136.989853,315.008362 142.447510,322.515289 147.411713,330.443451 
	C165.955627,315.031830 184.535614,318.329407 200.605103,328.518616 
	C217.675125,339.342194 222.417770,354.867889 215.940903,377.952454 
	C224.535904,379.633911 233.045456,381.298676 241.774216,383.877716 
	C242.149338,405.492554 232.422363,421.543030 214.509399,432.949768 
	C207.372910,437.494171 207.223206,440.227356 214.672195,444.431549 
	C226.709000,451.225098 238.786560,457.957520 251.042526,464.340149 
	C252.964325,465.341003 256.342285,465.183716 258.324097,464.161072 
	C269.714417,458.283447 281.055786,452.271088 292.104523,445.778168 
	C345.550049,414.370056 394.929504,377.818695 435.536621,330.468384 
	C466.173218,294.744263 489.568481,255.309814 496.252228,207.703659 
	C500.544342,177.132645 497.850311,147.604965 483.011810,119.859543 
	C457.416779,72.001328 406.921753,42.045578 346.668304,49.710182 
	C310.371307,54.327381 281.372528,72.381172 258.945068,101.146111 
	C255.432098,105.651779 254.036194,105.505783 250.073776,101.185486 
	C243.561279,94.084801 237.305847,86.626541 230.050354,80.349777 
	C195.092102,50.107246 154.160431,41.581722 110.367653,52.913143 
	C40.540848,70.980896 -0.753167,138.309402 13.242629,212.014648 
	C14.031836,216.170792 17.172138,217.458969 20.625626,215.055267 
	C21.843327,214.207718 22.836544,213.039307 23.940413,212.026291 
	C37.441586,199.636444 56.951969,197.879532 72.438644,207.656982 
	C79.998177,212.429688 79.899017,212.332428 86.318497,205.787674 
	C96.924187,194.975037 109.519432,190.613205 124.235825,195.406616 
	C122.015518,205.278183 119.712921,215.132294 117.611511,225.029099 
	C116.639847,229.605286 117.713562,230.458450 122.248009,229.048218 
	C133.133957,225.662643 140.089722,217.924301 145.772156,208.643082 
M67.853783,290.216553 
	C67.550377,291.307251 66.896439,292.435608 67.008698,293.481689 
	C67.358055,296.737000 84.029327,312.993286 87.289780,313.123627 
	C92.267860,313.322662 97.266426,313.306610 102.244438,313.098419 
	C105.229088,312.973602 107.616013,311.451752 106.837143,308.033936 
	C104.476700,297.676025 101.980835,287.345093 99.296646,277.066620 
	C98.116196,272.546387 95.319115,271.499298 91.403465,274.058502 
	C83.620499,279.145294 75.998398,284.478241 67.853783,290.216553 
z"/>
<path fill="#FD103E" opacity="1.000000" stroke="none" 
	d="
M149.943298,215.515472 
	C148.552917,213.224686 147.162537,210.933884 145.405457,208.112656 
	C139.516769,201.162766 132.938339,196.411438 124.509895,194.581345 
	C109.519432,190.613205 96.924187,194.975037 86.318497,205.787674 
	C79.899017,212.332428 79.998177,212.429688 72.438644,207.656982 
	C56.951969,197.879532 37.441586,199.636444 23.940413,212.026291 
	C22.836544,213.039307 21.843327,214.207718 20.625626,215.055267 
	C17.172138,217.458969 14.031836,216.170792 13.242629,212.014648 
	C-0.753167,138.309402 40.540848,70.980896 110.367653,52.913143 
	C154.160431,41.581722 195.092102,50.107246 230.050354,80.349777 
	C237.305847,86.626541 243.561279,94.084801 250.073776,101.185486 
	C254.036194,105.505783 255.432098,105.651779 258.945068,101.146111 
	C281.372528,72.381172 310.371307,54.327381 346.668304,49.710182 
	C406.921753,42.045578 457.416779,72.001328 483.011810,119.859543 
	C497.850311,147.604965 500.544342,177.132645 496.252228,207.703659 
	C489.568481,255.309814 466.173218,294.744263 435.536621,330.468384 
	C394.929504,377.818695 345.550049,414.370056 292.104523,445.778168 
	C281.055786,452.271088 269.714417,458.283447 258.324097,464.161072 
	C256.342285,465.183716 252.964325,465.341003 251.042526,464.340149 
	C238.786560,457.957520 226.709000,451.225098 214.672195,444.431549 
	C207.223206,440.227356 207.372910,437.494171 214.509399,432.949768 
	C232.422363,421.543030 242.149338,405.492554 241.811096,383.092407 
	C241.613983,373.313049 239.083115,364.975006 234.599045,357.216400 
	C231.176285,351.294098 231.354584,350.770416 236.590302,346.636108 
	C241.281464,342.931824 245.889893,339.053894 247.336044,332.437622 
	C248.325562,329.068207 249.080627,325.940338 249.941956,322.402496 
	C250.112137,315.011017 248.572281,308.538330 243.938995,302.689728 
	C241.425476,300.105621 239.000809,297.850830 236.399384,295.289185 
	C233.564102,293.640717 231.008820,292.010162 228.226151,291.016113 
	C221.945267,288.772430 221.602295,287.842255 223.110001,281.580658 
	C224.496719,275.821594 225.787018,269.894348 225.948044,264.009125 
	C226.851364,230.994324 192.408447,209.508133 163.235870,219.907852 
	C154.634583,222.974121 154.628769,222.957825 149.943298,215.515472 
M253.975418,301.000702 
	C253.975418,301.000702 253.916107,301.035278 253.904510,301.783508 
	C255.588043,307.886292 257.271545,313.989075 258.790253,320.951965 
	C258.945435,331.865906 254.896835,341.123749 247.348877,348.803680 
	C244.293457,351.912476 243.772919,354.603577 245.153412,358.969177 
	C247.736908,367.139038 249.107635,375.692383 250.786575,384.957397 
	C250.527512,404.560394 243.068344,420.804077 228.252045,433.709686 
	C222.967484,438.312805 223.122650,439.442139 229.321503,442.876923 
	C236.460159,446.832489 243.609375,450.803711 250.989670,454.265686 
	C253.009399,455.213135 256.398254,455.269073 258.271545,454.191559 
	C279.911255,441.744629 301.897919,429.794189 322.783966,416.166321 
	C362.832520,390.035156 399.628815,359.876251 430.458405,323.009247 
	C459.075073,288.788483 481.369873,251.372192 487.766510,206.224930 
	C491.761230,178.030365 489.393036,150.690125 475.841705,125.100517 
	C443.020782,63.123405 370.053040,39.544865 308.185974,70.858498 
	C288.394470,80.875854 272.817505,95.591019 260.633972,114.010284 
	C255.591171,121.634064 253.417313,121.638535 248.264130,113.928543 
	C248.171539,113.790031 248.086746,113.646179 247.991196,113.509796 
	C218.499268,71.405243 178.122604,51.960670 127.086624,58.538471 
	C85.619560,63.882965 54.694996,86.416832 34.271309,123.016968 
	C21.675692,145.588867 18.141802,170.026459 19.804398,195.455307 
	C20.105202,200.056030 22.611036,201.463455 26.460274,199.275940 
	C42.239155,190.308762 58.162884,190.226410 74.126595,198.542206 
	C77.345551,200.219009 79.703903,199.869705 82.185692,197.515015 
	C95.193161,185.173660 110.688828,182.613525 128.173599,186.437424 
	C134.977173,190.348190 141.780731,194.258957 148.971008,198.770599 
	C150.827515,200.712845 152.684021,202.655106 154.525223,205.119766 
	C158.792374,211.735626 158.729401,211.401108 166.572952,209.924423 
	C177.672684,207.834671 188.741837,207.938843 199.411728,212.436966 
	C226.265671,223.757858 237.803818,247.890884 233.282242,277.557373 
	C232.731827,281.168762 234.073151,282.899658 236.621552,285.025757 
	C242.285843,289.751434 247.558060,294.947052 253.123779,300.487366 
	C253.413651,300.680573 253.703506,300.873749 253.975418,301.000702 
z"/>
<path fill="#ADABAB" opacity="1.000000" stroke="none" 
	d="
M247.101608,332.679138 
	C245.889893,339.053894 241.281464,342.931824 236.590302,346.636108 
	C231.354584,350.770416 231.176285,351.294098 234.599045,357.216400 
	C239.083115,364.975006 241.613983,373.313049 241.701508,382.635254 
	C233.045456,381.298676 224.535904,379.633911 215.940903,377.952454 
	C222.417770,354.867889 217.675125,339.342194 200.605103,328.518616 
	C184.535614,318.329407 165.955627,315.031830 147.411713,330.443451 
	C142.447510,322.515289 136.989853,315.008362 132.790909,306.853363 
	C122.527992,286.921265 117.071358,265.665894 116.869568,243.122940 
	C116.835419,239.307861 117.827911,237.616699 121.827652,236.772995 
	C134.105957,234.182999 142.768616,226.437958 149.635956,215.791718 
	C154.628769,222.957825 154.634583,222.974121 163.235870,219.907852 
	C192.408447,209.508133 226.851364,230.994324 225.948044,264.009125 
	C225.787018,269.894348 224.496719,275.821594 223.110001,281.580658 
	C221.602295,287.842255 221.945267,288.772430 228.226151,291.016113 
	C231.008820,292.010162 233.564102,293.640717 236.054657,295.505554 
	C222.407455,302.976257 218.756989,315.448547 227.275635,326.190521 
	C232.359512,332.601257 239.484161,333.590057 247.101608,332.679138 
M193.060257,251.491425 
	C192.589554,251.019318 192.132141,250.533066 191.646164,250.077240 
	C184.100113,242.999329 173.499100,243.127975 166.082092,250.383286 
	C159.394669,256.924835 159.308609,268.149292 165.891724,275.209534 
	C172.616302,282.421509 184.140396,283.354340 191.206436,277.258606 
	C199.272614,270.300079 200.199646,260.394806 193.060257,251.491425 
M182.299957,317.371460 
	C185.172836,319.712952 188.461395,320.043182 190.670670,317.146790 
	C191.990936,315.415894 192.794067,311.633698 191.790909,310.206726 
	C190.536224,308.421875 187.109360,307.170898 184.760803,307.367676 
	C180.657852,307.711517 179.578506,311.916229 182.299957,317.371460 
M130.643204,264.388885 
	C130.286072,266.839264 129.205475,269.497192 129.827896,271.666504 
	C130.238068,273.095978 133.170273,274.746613 134.845810,274.619476 
	C136.765213,274.473877 139.544617,272.821075 140.118896,271.181580 
	C140.772324,269.316101 140.004150,266.314697 138.770752,264.574951 
	C136.893677,261.927277 133.923981,262.113770 130.643204,264.388885 
z"/>
<path fill="#AEADAD" opacity="1.000000" stroke="none" 
	d="
M154.552322,338.630463 
	C153.000916,335.216736 154.917679,333.421478 157.569382,331.773865 
	C169.383194,324.433319 181.356842,326.038910 192.712143,332.170807 
	C205.000092,338.806305 213.144913,348.688690 212.058197,363.807556 
	C211.917038,365.771393 211.475174,367.762909 210.846771,369.632080 
	C209.571609,373.424957 207.587753,374.589569 203.333038,372.741577 
	C187.586273,365.902100 173.914139,356.029816 160.417892,344.643311 
	C159.882904,340.727112 157.276138,339.623749 154.552322,338.630463 
z"/>
<path fill="#FD0F3D" opacity="1.000000" stroke="none" 
	d="
M154.087036,338.547180 
	C157.276138,339.623749 159.882904,340.727112 160.047623,344.531616 
	C162.921082,350.196014 165.099838,355.972626 168.469620,360.941528 
	C171.857742,365.937439 171.457413,368.759430 165.530823,370.206970 
	C158.046722,372.034912 152.286331,376.141876 148.057068,382.583160 
	C144.169144,388.504578 142.205719,388.693726 137.275604,383.524963 
	C127.966354,373.765076 118.706528,363.955902 109.562180,354.041748 
	C105.053513,349.153564 105.547760,346.781311 111.429291,343.735779 
	C124.830933,336.796234 138.940521,335.283325 154.087036,338.547180 
M152.026199,366.459412 
	C154.670593,364.819000 158.079865,363.603760 156.428680,359.359039 
	C155.106293,355.959503 153.833527,352.515289 152.150116,349.294006 
	C151.474472,348.001160 149.891327,346.663239 148.496231,346.350983 
	C140.204514,344.494873 131.967316,345.254120 123.966743,347.934265 
	C119.678825,349.370697 119.094543,351.582214 122.008926,355.003174 
	C125.453369,359.046356 129.086212,362.943237 132.820923,366.722168 
	C141.702759,375.709167 140.015793,376.740204 149.797119,368.018219 
	C150.290405,367.578369 150.868973,367.234192 152.026199,366.459412 
z"/>
<path fill="#FD0F3E" opacity="1.000000" stroke="none" 
	d="
M68.081802,289.963013 
	C75.998398,284.478241 83.620499,279.145294 91.403465,274.058502 
	C95.319115,271.499298 98.116196,272.546387 99.296646,277.066620 
	C101.980835,287.345093 104.476700,297.676025 106.837143,308.033936 
	C107.616013,311.451752 105.229088,312.973602 102.244438,313.098419 
	C97.266426,313.306610 92.267860,313.322662 87.289780,313.123627 
	C84.029327,312.993286 67.358055,296.737000 67.008698,293.481689 
	C66.896439,292.435608 67.550377,291.307251 68.081802,289.963013 
M95.557419,296.159546 
	C95.098770,294.046875 94.875366,291.846558 94.128082,289.841461 
	C92.910408,286.574219 91.055023,284.952942 87.307358,287.256775 
	C78.190331,292.861389 77.944839,294.383240 85.775032,301.643158 
	C85.897102,301.756348 85.997406,301.943237 86.137703,301.979126 
	C88.849777,302.672943 91.566338,303.349243 94.281967,304.029175 
	C94.786224,301.678650 95.290482,299.328125 95.557419,296.159546 
z"/>
<path fill="#AEACAC" opacity="1.000000" stroke="none" 
	d="
M124.372864,194.993988 
	C132.938339,196.411438 139.516769,201.162766 145.113403,207.872574 
	C140.089722,217.924301 133.133957,225.662643 122.248009,229.048218 
	C117.713562,230.458450 116.639847,229.605286 117.611511,225.029099 
	C119.712921,215.132294 122.015518,205.278183 124.372864,194.993988 
z"/>
<path fill="#FFFDFE" opacity="1.000000" stroke="none" 
	d="
M127.684097,186.031754 
	C110.688828,182.613525 95.193161,185.173660 82.185692,197.515015 
	C79.703903,199.869705 77.345551,200.219009 74.126595,198.542206 
	C58.162884,190.226410 42.239155,190.308762 26.460274,199.275940 
	C22.611036,201.463455 20.105202,200.056030 19.804398,195.455307 
	C18.141802,170.026459 21.675692,145.588867 34.271309,123.016968 
	C54.694996,86.416832 85.619560,63.882965 127.086624,58.538471 
	C178.122604,51.960670 218.499268,71.405243 247.991196,113.509796 
	C248.086746,113.646179 248.171539,113.790031 248.264130,113.928543 
	C253.417313,121.638535 255.591171,121.634064 260.633972,114.010284 
	C272.817505,95.591019 288.394470,80.875854 308.185974,70.858498 
	C370.053040,39.544865 443.020782,63.123405 475.841705,125.100517 
	C489.393036,150.690125 491.761230,178.030365 487.766510,206.224930 
	C481.369873,251.372192 459.075073,288.788483 430.458405,323.009247 
	C399.628815,359.876251 362.832520,390.035156 322.783966,416.166321 
	C301.897919,429.794189 279.911255,441.744629 258.271545,454.191559 
	C256.398254,455.269073 253.009399,455.213135 250.989670,454.265686 
	C243.609375,450.803711 236.460159,446.832489 229.321503,442.876923 
	C223.122650,439.442139 222.967484,438.312805 228.252045,433.709686 
	C243.068344,420.804077 250.527512,404.560394 251.355499,384.523010 
	C263.677460,383.310944 275.719269,383.909546 287.133148,381.515167 
	C334.229431,371.635254 368.677429,344.862244 389.694305,301.391541 
	C395.168793,290.068237 399.085449,278.135162 400.535156,265.997314 
	C393.434448,265.997314 386.668091,266.528442 380.010468,265.902771 
	C355.000488,263.552368 335.327454,235.016449 342.384766,211.134689 
	C344.639160,209.280807 347.170074,207.803848 348.175537,205.623459 
	C348.759155,204.357849 347.363892,201.473007 346.025177,200.180756 
	C343.547882,197.789383 340.541016,198.187317 338.110229,200.660431 
	C335.121643,203.701065 335.565308,206.797058 338.004883,210.049606 
	C323.204041,214.138489 309.716858,211.452744 298.152191,202.345581 
	C281.429169,189.176239 276.673309,171.517105 281.892029,150.672073 
	C265.148132,149.368210 252.445419,141.899780 243.587128,127.907585 
	C220.899445,142.406433 199.702789,140.231628 180.040619,122.749626 
	C164.225327,133.619492 151.406937,146.613449 141.010605,162.009262 
	C151.121628,171.072876 153.483414,173.118896 154.970581,182.432358 
	C156.117447,189.614670 154.775742,197.194351 154.540527,204.597351 
	C152.684021,202.655106 150.827515,200.712845 148.885132,198.008087 
	C149.585388,185.910233 148.046448,175.595123 136.369446,168.873276 
	C133.321457,174.894760 130.502777,180.463257 127.684097,186.031754 
M411.612518,183.110733 
	C408.669891,184.930557 406.696777,187.293289 408.333618,190.894424 
	C409.827454,194.180923 412.858978,195.974075 415.997772,194.226257 
	C417.936462,193.146713 419.918274,189.939468 419.784973,187.819183 
	C419.534454,183.835129 416.497406,181.947189 411.612518,183.110733 
M366.264832,140.289047 
	C362.905853,137.764771 359.322815,137.920441 357.332428,141.402283 
	C356.287079,143.230881 356.756378,146.858459 357.951111,148.811554 
	C359.660553,151.606186 362.998566,151.931030 365.774048,149.802322 
	C369.078339,147.268066 369.424683,144.124039 366.264832,140.289047 
z"/>
<path fill="#ACABAB" opacity="1.000000" stroke="none" 
	d="
M154.532883,204.858551 
	C154.775742,197.194351 156.117447,189.614670 154.970581,182.432358 
	C153.483414,173.118896 151.121628,171.072876 141.010605,162.009262 
	C151.406937,146.613449 164.225327,133.619492 180.040619,122.749626 
	C199.702789,140.231628 220.899445,142.406433 243.587128,127.907585 
	C252.445419,141.899780 265.148132,149.368210 281.892029,150.672073 
	C276.673309,171.517105 281.429169,189.176239 298.152191,202.345581 
	C309.716858,211.452744 323.204041,214.138489 338.329376,210.114761 
	C339.985687,210.342026 341.003418,210.779205 342.021149,211.216385 
	C335.327454,235.016449 355.000488,263.552368 380.010468,265.902771 
	C386.668091,266.528442 393.434448,265.997314 400.535156,265.997314 
	C399.085449,278.135162 395.168793,290.068237 389.694305,301.391541 
	C368.677429,344.862244 334.229431,371.635254 287.133148,381.515167 
	C275.719269,383.909546 263.677460,383.310944 251.453644,384.087402 
	C249.107635,375.692383 247.736908,367.139038 245.153412,358.969177 
	C243.772919,354.603577 244.293457,351.912476 247.348877,348.803680 
	C254.896835,341.123749 258.945435,331.865906 259.137756,320.249817 
	C259.836395,318.273163 260.276703,317.015594 260.523163,315.721161 
	C261.539673,310.382629 258.289246,303.217010 253.916107,301.035278 
	C253.916107,301.035278 253.975418,301.000702 253.886993,300.793274 
	C253.529068,300.374237 253.259583,300.162689 252.990097,299.951111 
	C247.558060,294.947052 242.285843,289.751434 236.621552,285.025757 
	C234.073151,282.899658 232.731827,281.168762 233.282242,277.557373 
	C237.803818,247.890884 226.265671,223.757858 199.411728,212.436966 
	C188.741837,207.938843 177.672684,207.834671 166.572952,209.924423 
	C158.729401,211.401108 158.792374,211.735626 154.532883,204.858551 
M302.040527,252.086609 
	C299.271912,251.699905 296.502716,250.985123 293.734772,250.989822 
	C286.302246,251.002457 280.022736,255.628952 277.345673,262.681946 
	C274.677765,269.710785 276.477814,278.022186 281.729462,282.923401 
	C287.157501,287.989227 295.793884,289.609528 302.154541,286.805542 
	C309.461731,283.584290 313.350647,277.625183 313.578308,270.035950 
	C313.812592,262.227600 310.213440,255.931305 302.040527,252.086609 
M245.160416,205.407669 
	C245.652435,203.653229 246.307114,201.926407 246.610229,200.139923 
	C248.630539,188.232468 235.952515,176.603973 224.237061,179.566925 
	C215.311768,181.824219 209.251221,189.077042 209.081665,197.703735 
	C208.913757,206.247253 214.975540,213.974243 223.650757,216.274963 
	C231.757889,218.425049 240.143036,214.400696 245.160416,205.407669 
M180.567230,135.162048 
	C176.603226,136.924179 175.291443,140.261047 177.433319,143.635498 
	C178.591263,145.459793 182.061737,146.989136 184.249344,146.718033 
	C187.718292,146.288132 189.347260,143.160614 188.655167,139.531769 
	C187.878387,135.458939 185.118835,134.232925 180.567230,135.162048 
M337.606873,328.889557 
	C340.623718,331.777985 344.216217,332.262970 346.687256,328.993347 
	C347.986328,327.274536 348.071564,323.568207 347.124908,321.473236 
	C345.705627,318.332153 342.170868,318.095612 339.324219,319.760132 
	C336.031616,321.685333 334.982117,324.696838 337.606873,328.889557 
z"/>
<path fill="#F9F6F6" opacity="1.000000" stroke="none" 
	d="
M247.336044,332.437622 
	C239.484161,333.590057 232.359512,332.601257 227.275635,326.190521 
	C218.756989,315.448547 222.407455,302.976257 236.231415,295.812378 
	C239.000809,297.850830 241.425476,300.105621 243.531754,302.685608 
	C242.217514,303.068634 241.180023,302.966034 240.233017,303.211975 
	C236.000336,304.310974 232.354675,306.398621 231.226715,310.904144 
	C230.107864,315.373322 231.076630,319.450684 234.903717,322.562500 
	C238.552582,325.529449 242.375992,325.766663 246.530106,323.812531 
	C247.560730,323.327698 248.730118,323.137848 249.835724,322.812439 
	C249.080627,325.940338 248.325562,329.068207 247.336044,332.437622 
z"/>
<path fill="#B0AAAB" opacity="1.000000" stroke="none" 
	d="
M127.928848,186.234589 
	C130.502777,180.463257 133.321457,174.894760 136.369446,168.873276 
	C148.046448,175.595123 149.585388,185.910233 148.691772,197.707657 
	C141.780731,194.258957 134.977173,190.348190 127.928848,186.234589 
z"/>
<path fill="#B0ABAC" opacity="1.000000" stroke="none" 
	d="
M249.941956,322.402496 
	C248.730118,323.137848 247.560730,323.327698 246.530106,323.812531 
	C242.375992,325.766663 238.552582,325.529449 234.903717,322.562500 
	C231.076630,319.450684 230.107864,315.373322 231.226715,310.904144 
	C232.354675,306.398621 236.000336,304.310974 240.233017,303.211975 
	C241.180023,302.966034 242.217514,303.068634 243.620605,303.014923 
	C248.572281,308.538330 250.112137,315.011017 249.941956,322.402496 
z"/>
<path fill="#F1DBDF" opacity="1.000000" stroke="none" 
	d="
M253.910309,301.409393 
	C258.289246,303.217010 261.539673,310.382629 260.523163,315.721161 
	C260.276703,317.015594 259.836395,318.273163 259.220154,319.819763 
	C257.271545,313.989075 255.588043,307.886292 253.910309,301.409393 
z"/>
<path fill="#F1DBDF" opacity="1.000000" stroke="none" 
	d="
M253.056946,300.219238 
	C253.259583,300.162689 253.529068,300.374237 253.895966,300.826385 
	C253.703506,300.873749 253.413651,300.680573 253.056946,300.219238 
z"/>
<path fill="#F9F8F9" opacity="1.000000" stroke="none" 
	d="
M193.314331,251.756348 
	C200.199646,260.394806 199.272614,270.300079 191.206436,277.258606 
	C184.140396,283.354340 172.616302,282.421509 165.891724,275.209534 
	C159.308609,268.149292 159.394669,256.924835 166.082092,250.383286 
	C173.499100,243.127975 184.100113,242.999329 191.646164,250.077240 
	C192.132141,250.533066 192.589554,251.019318 193.314331,251.756348 
M182.836838,252.111237 
	C177.450562,251.288544 172.737076,252.386673 170.025726,257.530975 
	C167.940491,261.487335 168.084152,265.699524 170.944778,269.268707 
	C173.702484,272.709473 177.332092,274.395203 181.953445,273.251129 
	C187.176865,271.958069 190.092224,268.369019 190.541458,263.402679 
	C190.997101,258.365479 188.428909,254.472183 182.836838,252.111237 
z"/>
<path fill="#F60F3C" opacity="1.000000" stroke="none" 
	d="
M182.043243,317.089081 
	C179.578506,311.916229 180.657852,307.711517 184.760803,307.367676 
	C187.109360,307.170898 190.536224,308.421875 191.790909,310.206726 
	C192.794067,311.633698 191.990936,315.415894 190.670670,317.146790 
	C188.461395,320.043182 185.172836,319.712952 182.043243,317.089081 
z"/>
<path fill="#F60F3C" opacity="1.000000" stroke="none" 
	d="
M130.926865,264.147400 
	C133.923981,262.113770 136.893677,261.927277 138.770752,264.574951 
	C140.004150,266.314697 140.772324,269.316101 140.118896,271.181580 
	C139.544617,272.821075 136.765213,274.473877 134.845810,274.619476 
	C133.170273,274.746613 130.238068,273.095978 129.827896,271.666504 
	C129.205475,269.497192 130.286072,266.839264 130.926865,264.147400 
z"/>
<path fill="#FEF4F6" opacity="1.000000" stroke="none" 
	d="
M151.717010,366.652405 
	C150.868973,367.234192 150.290405,367.578369 149.797119,368.018219 
	C140.015793,376.740204 141.702759,375.709167 132.820923,366.722168 
	C129.086212,362.943237 125.453369,359.046356 122.008926,355.003174 
	C119.094543,351.582214 119.678825,349.370697 123.966743,347.934265 
	C131.967316,345.254120 140.204514,344.494873 148.496231,346.350983 
	C149.891327,346.663239 151.474472,348.001160 152.150116,349.294006 
	C153.833527,352.515289 155.106293,355.959503 156.428680,359.359039 
	C158.079865,363.603760 154.670593,364.819000 151.717010,366.652405 
z"/>
<path fill="#FEF2F4" opacity="1.000000" stroke="none" 
	d="
M95.676079,296.568573 
	C95.290482,299.328125 94.786224,301.678650 94.281967,304.029175 
	C91.566338,303.349243 88.849777,302.672943 86.137703,301.979126 
	C85.997406,301.943237 85.897102,301.756348 85.775032,301.643158 
	C77.944839,294.383240 78.190331,292.861389 87.307358,287.256775 
	C91.055023,284.952942 92.910408,286.574219 94.128082,289.841461 
	C94.875366,291.846558 95.098770,294.046875 95.676079,296.568573 
z"/>
<path fill="#FC1845" opacity="1.000000" stroke="none" 
	d="
M411.944885,182.996399 
	C416.497406,181.947189 419.534454,183.835129 419.784973,187.819183 
	C419.918274,189.939468 417.936462,193.146713 415.997772,194.226257 
	C412.858978,195.974075 409.827454,194.180923 408.333618,190.894424 
	C406.696777,187.293289 408.669891,184.930557 411.944885,182.996399 
z"/>
<path fill="#FD1945" opacity="1.000000" stroke="none" 
	d="
M366.517273,140.538971 
	C369.424683,144.124039 369.078339,147.268066 365.774048,149.802322 
	C362.998566,151.931030 359.660553,151.606186 357.951111,148.811554 
	C356.756378,146.858459 356.287079,143.230881 357.332428,141.402283 
	C359.322815,137.920441 362.905853,137.764771 366.517273,140.538971 
z"/>
<path fill="#FC123F" opacity="1.000000" stroke="none" 
	d="
M342.384766,211.134689 
	C341.003418,210.779205 339.985687,210.342026 338.643494,209.839676 
	C335.565308,206.797058 335.121643,203.701065 338.110229,200.660431 
	C340.541016,198.187317 343.547882,197.789383 346.025177,200.180756 
	C347.363892,201.473007 348.759155,204.357849 348.175537,205.623459 
	C347.170074,207.803848 344.639160,209.280807 342.384766,211.134689 
z"/>
<path fill="#F9F9F9" opacity="1.000000" stroke="none" 
	d="
M302.393402,252.262817 
	C310.213440,255.931305 313.812592,262.227600 313.578308,270.035950 
	C313.350647,277.625183 309.461731,283.584290 302.154541,286.805542 
	C295.793884,289.609528 287.157501,287.989227 281.729462,282.923401 
	C276.477814,278.022186 274.677765,269.710785 277.345673,262.681946 
	C280.022736,255.628952 286.302246,251.002457 293.734772,250.989822 
	C296.502716,250.985123 299.271912,251.699905 302.393402,252.262817 
M303.580566,275.947357 
	C306.814758,271.460266 306.711853,266.940125 303.372040,262.641724 
	C300.760437,259.280487 297.296143,257.532104 292.898560,258.521118 
	C287.818909,259.663513 284.426117,263.148560 283.984894,268.014771 
	C283.563080,272.666809 285.064667,276.522064 289.458801,278.830597 
	C294.218597,281.331238 298.422455,280.620972 303.580566,275.947357 
z"/>
<path fill="#F9F9F9" opacity="1.000000" stroke="none" 
	d="
M245.001923,205.755737 
	C240.143036,214.400696 231.757889,218.425049 223.650757,216.274963 
	C214.975540,213.974243 208.913757,206.247253 209.081665,197.703735 
	C209.251221,189.077042 215.311768,181.824219 224.237061,179.566925 
	C235.952515,176.603973 248.630539,188.232468 246.610229,200.139923 
	C246.307114,201.926407 245.652435,203.653229 245.001923,205.755737 
M231.452087,187.704697 
	C225.958069,186.499298 220.941071,188.152908 218.477280,192.330383 
	C216.089172,196.379578 216.174759,200.552216 218.961182,204.447861 
	C221.886963,208.538330 226.039047,209.941025 230.771378,208.779617 
	C235.651550,207.581909 238.314743,203.816147 238.834442,199.100739 
	C239.393616,194.027328 236.916306,190.192932 231.452087,187.704697 
z"/>
<path fill="#F6103D" opacity="1.000000" stroke="none" 
	d="
M180.912415,135.072784 
	C185.118835,134.232925 187.878387,135.458939 188.655167,139.531769 
	C189.347260,143.160614 187.718292,146.288132 184.249344,146.718033 
	C182.061737,146.989136 178.591263,145.459793 177.433319,143.635498 
	C175.291443,140.261047 176.603226,136.924179 180.912415,135.072784 
z"/>
<path fill="#F70F3C" opacity="1.000000" stroke="none" 
	d="
M337.362854,328.585052 
	C334.982117,324.696838 336.031616,321.685333 339.324219,319.760132 
	C342.170868,318.095612 345.705627,318.332153 347.124908,321.473236 
	C348.071564,323.568207 347.986328,327.274536 346.687256,328.993347 
	C344.216217,332.262970 340.623718,331.777985 337.362854,328.585052 
z"/>
<path fill="#AEAEAE" opacity="1.000000" stroke="none" 
	d="
M183.218872,252.243057 
	C188.428909,254.472183 190.997101,258.365479 190.541458,263.402679 
	C190.092224,268.369019 187.176865,271.958069 181.953445,273.251129 
	C177.332092,274.395203 173.702484,272.709473 170.944778,269.268707 
	C168.084152,265.699524 167.940491,261.487335 170.025726,257.530975 
	C172.737076,252.386673 177.450562,251.288544 183.218872,252.243057 
z"/>
<path fill="#AEAEAE" opacity="1.000000" stroke="none" 
	d="
M303.320496,276.231171 
	C298.422455,280.620972 294.218597,281.331238 289.458801,278.830597 
	C285.064667,276.522064 283.563080,272.666809 283.984894,268.014771 
	C284.426117,263.148560 287.818909,259.663513 292.898560,258.521118 
	C297.296143,257.532104 300.760437,259.280487 303.372040,262.641724 
	C306.711853,266.940125 306.814758,271.460266 303.320496,276.231171 
z"/>
<path fill="#AFAFAF" opacity="1.000000" stroke="none" 
	d="
M231.807281,187.862000 
	C236.916306,190.192932 239.393616,194.027328 238.834442,199.100739 
	C238.314743,203.816147 235.651550,207.581909 230.771378,208.779617 
	C226.039047,209.941025 221.886963,208.538330 218.961182,204.447861 
	C216.174759,200.552216 216.089172,196.379578 218.477280,192.330383 
	C220.941071,188.152908 225.958069,186.499298 231.807281,187.862000 
z"/>
</svg>